<svg width="1920" height="394" viewBox="0 0 1920 394" fill="none" xmlns="http://www.w3.org/2000/svg">
<path d="M0 109.699L35.5 103.644C71 97.6951 142 85.5851 213.2 94.6145C284.3 103.644 355.7 133.813 426.8 141.355C498 149.003 569 134.131 640 117.879C711 101.519 782 83.8854 853.2 85.4789C924.3 87.0723 995.7 107.893 1066.8 99.8197C1138 91.6401 1209 54.4601 1280 49.4674C1351 44.5809 1422 71.7754 1493.2 66.6764C1564.3 61.5774 1635.7 23.9726 1706.8 9.10059C1778 -5.77138 1849 2.08952 1884.5 5.91374L1920 9.84421V393.329H1884.5C1849 393.329 1778 393.329 1706.8 393.329C1635.7 393.329 1564.3 393.329 1493.2 393.329C1422 393.329 1351 393.329 1280 393.329C1209 393.329 1138 393.329 1066.8 393.329C995.7 393.329 924.3 393.329 853.2 393.329C782 393.329 711 393.329 640 393.329C569 393.329 498 393.329 426.8 393.329C355.7 393.329 284.3 393.329 213.2 393.329C142 393.329 71 393.329 35.5 393.329H0V109.699Z" fill="#E75056"/>
<path d="M0 125.633L35.5 116.604C71 107.574 142 89.5155 213.2 107.256C284.3 124.89 355.7 178.429 426.8 178.429C498 178.429 569 124.89 640 119.259C711 113.629 782 155.696 853.2 169.187C924.3 182.678 995.7 167.381 1066.8 147.729C1138 128.076 1209 104.069 1280 102.582C1351 101.201 1422 122.446 1493.2 138.381C1564.3 154.315 1635.7 164.938 1706.8 165.15C1778 165.256 1849 155.058 1884.5 149.853L1920 144.754V393.329H1884.5C1849 393.329 1778 393.329 1706.8 393.329C1635.7 393.329 1564.3 393.329 1493.2 393.329C1422 393.329 1351 393.329 1280 393.329C1209 393.329 1138 393.329 1066.8 393.329C995.7 393.329 924.3 393.329 853.2 393.329C782 393.329 711 393.329 640 393.329C569 393.329 498 393.329 426.8 393.329C355.7 393.329 284.3 393.329 213.2 393.329C142 393.329 71 393.329 35.5 393.329H0V125.633Z" fill="#E34257"/>
<path d="M0 160.689L35.5 172.161C71 183.74 142 206.685 213.2 209.872C284.3 213.059 355.7 196.488 426.8 202.436C498 208.491 569 237.173 640 244.078C711 250.983 782 236.111 853.2 232.711C924.3 229.418 995.7 237.492 1066.8 234.199C1138 230.799 1209 215.927 1280 222.089C1351 228.356 1422 255.551 1493.2 257.888C1564.3 260.225 1635.7 237.492 1706.8 227.294C1778 216.99 1849 219.114 1884.5 220.176L1920 221.239V393.329H1884.5C1849 393.329 1778 393.329 1706.8 393.329C1635.7 393.329 1564.3 393.329 1493.2 393.329C1422 393.329 1351 393.329 1280 393.329C1209 393.329 1138 393.329 1066.8 393.329C995.7 393.329 924.3 393.329 853.2 393.329C782 393.329 711 393.329 640 393.329C569 393.329 498 393.329 426.8 393.329C355.7 393.329 284.3 393.329 213.2 393.329C142 393.329 71 393.329 35.5 393.329H0V160.689Z" fill="#DE3259"/>
<path d="M0 266.917L35.5 275.415C71 283.913 142 300.91 213.2 310.789C284.3 320.775 355.7 323.537 426.8 325.874C498 328.211 569 329.91 640 317.588C711 305.159 782 278.602 853.2 267.979C924.3 257.356 995.7 262.668 1066.8 264.261C1138 265.855 1209 263.73 1280 267.235C1351 270.847 1422 279.983 1493.2 277.54C1564.3 275.096 1635.7 260.862 1706.8 269.041C1778 277.221 1849 307.602 1884.5 322.899L1920 338.09V393.329H1884.5C1849 393.329 1778 393.329 1706.8 393.329C1635.7 393.329 1564.3 393.329 1493.2 393.329C1422 393.329 1351 393.329 1280 393.329C1209 393.329 1138 393.329 1066.8 393.329C995.7 393.329 924.3 393.329 853.2 393.329C782 393.329 711 393.329 640 393.329C569 393.329 498 393.329 426.8 393.329C355.7 393.329 284.3 393.329 213.2 393.329C142 393.329 71 393.329 35.5 393.329H0V266.917Z" fill="#D81E5B"/>
</svg>
